<svg width="40" height="31" viewBox="0 0 40 31" fill="none" xmlns="http://www.w3.org/2000/svg">
<path d="M13.0536 14.4971C14.6076 15.1657 15.8197 16.1686 16.69 17.5059C17.5602 18.8431 17.9953 20.4235 17.9953 22.2471C17.9953 24.8608 17.1562 26.9882 15.4779 28.6294C13.7995 30.2098 11.655 31 9.04429 31C6.43357 31 4.25796 30.1794 2.51748 28.5382C0.839161 26.8971 0 24.8 0 22.2471C0 21.0314 0.1554 19.8157 0.4662 18.6C0.777001 17.3843 1.46076 15.5608 2.51748 13.1294L7.92541 0H17.1562L13.0536 14.4971ZM35.0583 14.4971C36.6123 15.1657 37.8244 16.1686 38.6946 17.5059C39.5649 18.8431 40 20.4235 40 22.2471C40 24.8608 39.1608 26.9882 37.4825 28.6294C35.8042 30.2098 33.6597 31 31.049 31C28.4382 31 26.2626 30.1794 24.5221 28.5382C22.8438 26.8971 22.0047 24.8 22.0047 22.2471C22.0047 21.0314 22.1601 19.8157 22.4709 18.6C22.7817 17.3843 23.4654 15.5608 24.5221 13.1294L29.9301 0H39.1608L35.0583 14.4971Z" fill="#2A7C6B"/>
</svg>
